@startuml
'https://plantuml.com/class-diagram
abstract class Person {
    # String name
    # Integer age
    + void move()
    + void say()
}
note top of Person: 这是一个抽象的人
class Student {
    - String studentNo
    + void study()
}
class Teacher {
    - String teacherNo
    + void teach()
}

Person <|-- Student
Person <|-- Teacher

@enduml